<svg version="1.1" viewBox="400 0 260 540" fill="none" stroke="none" stroke-linecap="square" stroke-miterlimit="10" xmlns:xlink="http://www.w3.org/1999/xlink" xmlns="http://www.w3.org/2000/svg"><clipPath id="g1fc3076126b_0_0.0"><path d="m0 0l960.0 0l0 540.0l-960.0 0l0 -540.0z" clip-rule="nonzero"/></clipPath><g clip-path="url(#g1fc3076126b_0_0.0)"><path fill="#000000" fill-opacity="0.0" d="m0 0l960.0 0l0 540.0l-960.0 0z" fill-rule="evenodd"/><path fill="#000000" d="m408.6911 401.20407l0 0c-9.462769 -17.79486 3.4116821 -43.156006 28.75589 -56.64566l0 0c25.344238 -13.489685 53.560883 -9.999603 63.02365 7.7952576l0 0c9.462769 17.794891 -3.4117126 43.156006 -28.75592 56.64569l0 0c-25.344208 13.489655 -53.560852 9.999603 -63.02362 -7.795288z" fill-rule="evenodd"/><path stroke="#000000" stroke-width="1.0" stroke-linejoin="round" stroke-linecap="butt" d="m408.6911 401.20407l0 0c-9.462769 -17.79486 3.4116821 -43.156006 28.75589 -56.64566l0 0c25.344238 -13.489685 53.560883 -9.999603 63.02365 7.7952576l0 0c9.462769 17.794891 -3.4117126 43.156006 -28.75592 56.64569l0 0c-25.344208 13.489655 -53.560852 9.999603 -63.02362 -7.795288z" fill-rule="evenodd"/><path fill="#000000" fill-opacity="0.0" d="m495.4558 365.5446l0 -277.41733" fill-rule="evenodd"/><path stroke="#000000" stroke-width="16.0" stroke-linejoin="round" stroke-linecap="butt" d="m495.4558 365.5446l0 -277.41733" fill-rule="evenodd"/><path fill="#000000" d="m538.31494 377.90027l0 0c0 -9.767181 7.9179077 -17.685059 17.685059 -17.685059l0 0c4.6903687 0 9.188599 1.8632507 12.505188 5.17984c3.3165894 3.3165894 5.1798706 7.81485 5.1798706 12.5052185l0 0c0 9.767181 -7.9179077 17.685028 -17.685059 17.685028l0 0c-9.767151 0 -17.685059 -7.9178467 -17.685059 -17.685028z" fill-rule="evenodd"/><path stroke="#000000" stroke-width="1.0" stroke-linejoin="round" stroke-linecap="butt" d="m538.31494 377.90027l0 0c0 -9.767181 7.9179077 -17.685059 17.685059 -17.685059l0 0c4.6903687 0 9.188599 1.8632507 12.505188 5.17984c3.3165894 3.3165894 5.1798706 7.81485 5.1798706 12.5052185l0 0c0 9.767181 -7.9179077 17.685028 -17.685059 17.685028l0 0c-9.767151 0 -17.685059 -7.9178467 -17.685059 -17.685028z" fill-rule="evenodd"/><path fill="#dd9200" d="m424.1972 397.12497l0 0c-6.1316833 -9.053986 2.3643494 -25.503113 18.97638 -36.740143l0 0c16.61203 -11.23703 35.04944 -13.006744 41.18109 -3.9527588l0 0c6.131653 9.053986 -2.3643494 25.503113 -18.97638 36.740143l0 0c-16.61203 11.237061 -35.04944 13.006775 -41.18109 3.9527588z" fill-rule="evenodd"/><path stroke="#595959" stroke-width="1.0" stroke-linejoin="round" stroke-linecap="butt" d="m424.1972 397.12497l0 0c-6.1316833 -9.053986 2.3643494 -25.503113 18.97638 -36.740143l0 0c16.61203 -11.23703 35.04944 -13.006744 41.18109 -3.9527588l0 0c6.131653 9.053986 -2.3643494 25.503113 -18.97638 36.740143l0 0c-16.61203 11.237061 -35.04944 13.006775 -41.18109 3.9527588z" fill-rule="evenodd"/></g></svg>