<svg version="1.1" viewBox="400 0.0 260.0 540.0" fill="none" stroke="none" stroke-linecap="square" stroke-miterlimit="10" xmlns:xlink="http://www.w3.org/1999/xlink" xmlns="http://www.w3.org/2000/svg"><clipPath id="g1fc3076126b_0_0.0"><path d="m0 0l960.0 0l0 540.0l-960.0 0l0 -540.0z" clip-rule="nonzero"/></clipPath><g clip-path="url(#g1fc3076126b_0_0.0)"><path fill="#000000" fill-opacity="0.0" d="m0 0l960.0 0l0 540.0l-960.0 0z" fill-rule="evenodd"/><path fill="#000000" d="m408.6911 401.20407l0 0c-9.462769 -17.79486 3.4116821 -43.156006 28.75589 -56.64566l0 0c25.344238 -13.489685 53.560883 -9.999603 63.02365 7.7952576l0 0c9.462769 17.794891 -3.4117126 43.156006 -28.75592 56.64569l0 0c-25.344208 13.489655 -53.560852 9.999603 -63.02362 -7.795288z" fill-rule="evenodd"/><path stroke="#000000" stroke-width="2.0" stroke-linejoin="round" stroke-linecap="butt" d="m408.6911 401.20407l0 0c-9.462769 -17.79486 3.4116821 -43.156006 28.75589 -56.64566l0 0c25.344238 -13.489685 53.560883 -9.999603 63.02365 7.7952576l0 0c9.462769 17.794891 -3.4117126 43.156006 -28.75592 56.64569l0 0c-25.344208 13.489655 -53.560852 9.999603 -63.02362 -7.795288z" fill-rule="evenodd"/><path fill="#000000" fill-opacity="0.0" d="m495.4558 365.5446l0 -277.41733" fill-rule="evenodd"/><path stroke="#000000" stroke-width="16.0" stroke-linejoin="round" stroke-linecap="butt" d="m495.4558 365.5446l0 -277.41733" fill-rule="evenodd"/></g></svg>